<svg width="19" height="23" viewBox="0 0 19 23" fill="none" xmlns="http://www.w3.org/2000/svg">
<path d="M6.86413 22.4027C3.5699 22.3837 0.844971 15.6591 0.844971 12.2344C0.844971 6.64012 5.0416 5.41539 6.65895 5.41539C7.38782 5.41539 8.16611 5.70162 8.85257 5.95491C9.3326 6.13159 9.82907 6.31398 10.1052 6.31398C10.2705 6.31398 10.6599 6.15883 11.0038 6.02269C11.7371 5.73076 12.6496 5.36792 13.7122 5.36792C13.7141 5.36792 13.7167 5.36792 13.7185 5.36792C14.512 5.36792 16.9178 5.54205 18.3642 7.71414L18.703 8.22327L18.2154 8.59121C17.5188 9.11681 16.2478 10.0756 16.2478 11.9748C16.2478 14.2241 17.6872 15.0891 18.3787 15.5052C18.684 15.6888 19 15.8782 19 16.2923C19 16.5628 16.8418 22.3691 13.7078 22.3691C12.9409 22.3691 12.3988 22.1386 11.9207 21.9353C11.4369 21.7295 11.0196 21.5522 10.3299 21.5522C9.98037 21.5522 9.53834 21.7175 9.07037 21.8929C8.43085 22.1316 7.707 22.4027 6.88565 22.4027H6.86413Z" fill="#FAFAFA"/>
<path d="M14.0443 0.268555C14.1259 3.21153 12.0212 5.25324 9.919 5.12519C9.57259 2.77659 12.021 0.268555 14.0443 0.268555Z" fill="#FAFAFA"/>
</svg>
