<svg width="14" height="14" viewBox="0 0 14 14" fill="none" xmlns="http://www.w3.org/2000/svg">
<path fill-rule="evenodd" clip-rule="evenodd" d="M9.60737 7.87498H5.26154L4.61987 9.04165H11.6199V10.2083H4.61987C3.73321 10.2083 3.17321 9.25748 3.59904 8.47581L4.38654 7.05248L2.28654 2.62498H1.11987V1.45831H3.02737L5.51237 6.70831H9.60737L11.8649 2.62498L12.8799 3.18498L10.6282 7.27415C10.4299 7.63581 10.0449 7.87498 9.60737 7.87498ZM4.6199 10.7916C3.97823 10.7916 3.45906 11.3166 3.45906 11.9583C3.45906 12.6 3.97823 13.125 4.6199 13.125C5.26156 13.125 5.78656 12.6 5.78656 11.9583C5.78656 11.3166 5.26156 10.7916 4.6199 10.7916ZM10.4532 10.7916C9.81152 10.7916 9.29236 11.3166 9.29236 11.9583C9.29236 12.6 9.81152 13.125 10.4532 13.125C11.0949 13.125 11.6199 12.6 11.6199 11.9583C11.6199 11.3166 11.0949 10.7916 10.4532 10.7916Z" fill="#FAFAFA"/>
<path d="M6 3.5L7.5 5L10.5 2" stroke="white"/>
</svg>
