<svg width="22" height="23" viewBox="0 0 22 23" fill="none" xmlns="http://www.w3.org/2000/svg">
<path fill-rule="evenodd" clip-rule="evenodd" d="M16.7281 11.3726C16.4172 11.9395 15.8138 12.3143 15.1281 12.3143H8.31662L7.31091 14.1429H18.2823V15.9715H7.31091C5.9212 15.9715 5.04348 14.4812 5.71091 13.256L6.9452 11.0252L3.65377 4.08574H1.8252V2.25717H4.81491L5.67434 4.08574H19.2058C19.9006 4.08574 20.3395 4.83546 20.0012 5.43889L16.7281 11.3726ZM17.6515 5.91431H6.54291L8.70976 10.4857H15.1281L17.6515 5.91431ZM7.31091 16.8857C6.30519 16.8857 5.49148 17.7086 5.49148 18.7143C5.49148 19.72 6.30519 20.5429 7.31091 20.5429C8.31662 20.5429 9.13948 19.72 9.13948 18.7143C9.13948 17.7086 8.31662 16.8857 7.31091 16.8857ZM14.6343 18.7143C14.6343 17.7086 15.4481 16.8857 16.4538 16.8857C17.4595 16.8857 18.2823 17.7086 18.2823 18.7143C18.2823 19.72 17.4595 20.5429 16.4538 20.5429C15.4481 20.5429 14.6343 19.72 14.6343 18.7143Z" fill="white"/>
</svg>

