<svg width="14" height="14" viewBox="0 0 14 14" fill="none" xmlns="http://www.w3.org/2000/svg">
<path fill-rule="evenodd" clip-rule="evenodd" d="M8.11989 5.54167H6.95323V3.79167H5.20323V2.625H6.95323V0.875H8.11989V2.625H9.86989V3.79167H8.11989V5.54167ZM3.45912 11.9583C3.45912 11.3167 3.97829 10.7917 4.61996 10.7917C5.26162 10.7917 5.78662 11.3167 5.78662 11.9583C5.78662 12.6 5.26162 13.125 4.61996 13.125C3.97829 13.125 3.45912 12.6 3.45912 11.9583ZM10.4532 10.7917C9.81158 10.7917 9.29242 11.3167 9.29242 11.9583C9.29242 12.6 9.81158 13.125 10.4532 13.125C11.0949 13.125 11.6199 12.6 11.6199 11.9583C11.6199 11.3167 11.0949 10.7917 10.4532 10.7917ZM9.60743 7.875H5.2616L4.61993 9.04167H11.6199V10.2083H4.61993C3.73327 10.2083 3.17327 9.2575 3.5991 8.47584L4.3866 7.05251L2.2866 2.62501H1.11993V1.45834H3.02743L5.51243 6.70834H9.60743L11.8649 2.62501L12.8799 3.185L10.6283 7.27417C10.4299 7.63584 10.0449 7.875 9.60743 7.875Z" fill="#FAFAFA"/>
</svg>
