<svg width="20" height="20" viewBox="0 0 20 20" fill="none" xmlns="http://www.w3.org/2000/svg">
<path fill-rule="evenodd" clip-rule="evenodd" d="M10 2.91495C11.09 1.63495 12.76 0.824951 14.5 0.824951C17.58 0.824951 20 3.24495 20 6.32495C20 10.1018 16.6056 13.1799 11.4627 17.8435L11.45 17.855L10 19.175L8.55 17.865L8.51052 17.8291C3.38263 13.1692 0 10.0953 0 6.32495C0 3.24495 2.42 0.824951 5.5 0.824951C7.24 0.824951 8.91 1.63495 10 2.91495ZM10 16.475L10.1 16.375C14.86 12.065 18 9.21495 18 6.32495C18 4.32495 16.5 2.82495 14.5 2.82495C12.96 2.82495 11.46 3.81495 10.94 5.18495H9.07C8.54 3.81495 7.04 2.82495 5.5 2.82495C3.5 2.82495 2 4.32495 2 6.32495C2 9.21495 5.14 12.065 9.9 16.375L10 16.475Z" fill="#F231A5"/>
</svg>
