<svg width="20" height="23" viewBox="0 0 20 23" fill="none" xmlns="http://www.w3.org/2000/svg">
<path d="M18.9689 18.0405C18.3199 17.7746 18.0422 17.4219 18.0691 16.8955C18.0967 16.2811 17.7481 15.8311 17.5826 15.6533C17.6826 15.2713 17.9749 13.9497 17.5829 12.8019C17.1617 11.5732 15.8757 9.69676 14.5488 7.85221C14.0056 7.09471 13.9799 6.27131 13.9503 5.31787C13.9218 4.40847 13.8897 3.37766 13.3826 2.23176C12.8312 0.984038 11.7248 0.268555 10.3469 0.268555C9.52717 0.268555 8.68578 0.524732 8.03829 0.971338C6.71241 1.88639 6.88767 3.88146 7.00364 5.20161C7.01953 5.38238 7.03448 5.55314 7.04319 5.69894C7.12041 6.99187 7.05016 7.67332 6.95828 7.88044C6.89885 8.01578 6.60624 8.40099 6.29658 8.80885C5.97632 9.23063 5.61324 9.70873 5.31563 10.1543C4.96053 10.6903 4.67388 11.5097 4.39665 12.3022C4.19382 12.882 4.00223 13.4297 3.81572 13.757C3.46222 14.3866 3.55018 14.9737 3.62362 15.2451C3.4898 15.338 3.29647 15.5211 3.13326 15.8661C2.93601 16.287 2.53577 16.5132 1.70352 16.6732C1.32107 16.7514 1.05735 16.9123 0.919461 17.1512C0.7188 17.4989 0.828093 17.9357 0.927806 18.2343C1.07513 18.6732 0.983324 18.951 0.816409 19.4554C0.777946 19.5718 0.734331 19.7036 0.690135 19.8489C0.620538 20.0783 0.645648 20.2869 0.764593 20.4688C1.0789 20.9493 1.99606 21.1188 2.94022 21.2303C3.50395 21.2972 4.12095 21.5227 4.71771 21.7408C5.30242 21.9545 5.90701 22.1754 6.4566 22.2425C6.54013 22.253 6.62286 22.2583 6.70261 22.2583C7.5324 22.2583 7.9073 21.7077 8.02617 21.4815C8.32423 21.4207 9.3522 21.2259 10.4117 21.1998C11.4695 21.1696 12.493 21.3785 12.7829 21.4434C12.874 21.6179 13.1143 22.0164 13.4973 22.2217C13.7079 22.3368 14.0008 22.4027 14.3009 22.4027C14.301 22.4027 14.3009 22.4027 14.301 22.4027C14.6215 22.4027 15.2311 22.327 15.7137 21.8193C16.195 21.3093 17.3975 20.6582 18.2756 20.1828C18.4715 20.0767 18.6549 19.9774 18.8156 19.8878C19.3089 19.6143 19.578 19.2236 19.554 18.8158C19.534 18.4771 19.3098 18.18 18.9689 18.0405ZM8.04911 17.9423C7.98771 17.5097 7.43131 17.0808 6.78694 16.5841C6.26007 16.1779 5.66288 15.7176 5.49836 15.3277C5.15836 14.5235 5.42637 13.1094 5.89366 12.3812C6.12458 12.0166 6.3132 11.4637 6.49564 10.929C6.6926 10.3516 6.89631 9.7546 7.12411 9.49327C7.48486 9.08527 7.81826 8.29141 7.87733 7.66577C8.21515 7.98828 8.73919 8.39751 9.22331 8.39751C9.29785 8.39751 9.3702 8.38779 9.43936 8.36826C9.77058 8.27262 10.2577 7.99111 10.7289 7.71897C11.1351 7.48427 11.636 7.19486 11.8244 7.16851C12.1476 7.63253 14.0254 11.7881 14.2173 13.1226C14.3691 14.1785 14.2087 15.0514 14.1281 15.3933C14.0632 15.3844 13.9858 15.3772 13.9045 15.3772C13.3815 15.3772 13.2431 15.6627 13.207 15.8332C13.1142 16.2761 13.1044 17.6923 13.1034 18.0106C12.9143 18.2508 11.9579 19.3824 10.5848 19.5858C10.0254 19.6671 9.50315 19.7083 9.03245 19.7083C8.63011 19.7083 8.37336 19.6772 8.26675 19.6611L7.57674 18.8715C7.84881 18.7372 8.12081 18.4538 8.04911 17.9423ZM8.92468 4.92395C8.90313 4.93324 8.88194 4.94318 8.86111 4.95377C8.85901 4.90704 8.85414 4.85965 8.84667 4.81211C8.77134 4.3785 8.48381 4.06376 8.16312 4.06376C8.13939 4.06376 8.11551 4.06557 8.08931 4.06956C7.89852 4.10135 7.74888 4.24468 7.66687 4.44788C7.73879 4.002 7.99141 3.67187 8.29113 3.67187C8.64311 3.67187 8.94043 4.1462 8.94043 4.70761C8.94043 4.77837 8.93528 4.84876 8.92468 4.92395ZM11.6596 5.25828C11.6918 5.15567 11.7093 5.04463 11.7093 4.92939C11.7093 4.42037 11.3863 4.02159 10.974 4.02159C10.5711 4.02159 10.2433 4.42879 10.2433 4.92939C10.2433 4.9635 10.245 4.99768 10.2482 5.03179C10.2268 5.02359 10.206 5.0156 10.1857 5.00791C10.1393 4.86749 10.1159 4.72096 10.1159 4.57139C10.1159 3.96274 10.5049 3.46751 10.9831 3.46751C11.4613 3.46751 11.8503 3.96274 11.8503 4.57139C11.8503 4.8246 11.7804 5.06626 11.6596 5.25828ZM11.307 6.44294C11.3001 6.47371 11.2854 6.48736 11.1233 6.57168C11.0414 6.61428 10.9396 6.66733 10.8121 6.74498L10.7269 6.79658C10.3845 7.00414 9.58276 7.49029 9.36512 7.51881C9.21729 7.5387 9.12585 7.48137 8.92026 7.34167C8.87388 7.3101 8.82453 7.27657 8.77192 7.24283C8.4013 6.99964 8.1629 6.73178 8.13598 6.62706C8.25681 6.53366 8.55631 6.2999 8.70965 6.16151C9.02091 5.87209 9.33413 5.6776 9.48914 5.6776C9.49734 5.6776 9.50475 5.67818 9.51244 5.67963C9.69459 5.71178 10.1439 5.89111 10.4721 6.02203C10.6237 6.08255 10.7547 6.1348 10.8469 6.1679C11.1372 6.26761 11.2886 6.39519 11.307 6.44294ZM13.9157 19.9681C14.0795 19.2293 14.2682 18.2241 14.2376 17.6316C14.2306 17.497 14.2187 17.3504 14.2072 17.2088C14.1856 16.9439 14.1536 16.5502 14.1866 16.4334C14.1932 16.4304 14.2004 16.4278 14.2085 16.4255C14.2099 16.7643 14.2834 17.44 14.8238 17.6756C14.9848 17.7459 15.1689 17.7814 15.3708 17.7814C15.9121 17.7814 16.5127 17.5159 16.7587 17.2699C16.9036 17.125 17.0254 16.9478 17.1108 16.8075C17.1294 16.8621 17.1409 16.9335 17.1348 17.0255C17.1027 17.5252 17.3455 18.1881 17.8077 18.4323L17.8749 18.4677C18.0395 18.554 18.4767 18.7836 18.4837 18.8924C18.4837 18.8925 18.48 18.9053 18.4556 18.9279C18.3461 19.028 17.9607 19.2248 17.588 19.4152C16.9268 19.7528 16.1773 20.1355 15.8408 20.4895C15.3669 20.9882 14.8308 21.3232 14.5072 21.3232C14.4682 21.3232 14.4327 21.3182 14.4011 21.3082C14.0496 21.1986 13.7603 20.6914 13.9157 19.9681ZM1.93336 18.0832C1.89751 17.9154 1.8692 17.783 1.89961 17.6547C1.92167 17.5596 2.39099 17.4577 2.59144 17.4142C2.87323 17.3531 3.16468 17.2898 3.35525 17.1742C3.61295 17.0181 3.75251 16.7302 3.87559 16.4762C3.96471 16.2925 4.05673 16.1026 4.16624 16.0402C4.17241 16.0366 4.18184 16.0324 4.19984 16.0324C4.405 16.0324 4.83549 16.4637 5.08354 16.8497C5.14646 16.947 5.26301 17.142 5.39785 17.3678C5.80113 18.0426 6.35333 18.9668 6.64173 19.2765C6.90161 19.555 7.3223 20.0903 7.21882 20.5495C7.14305 20.9057 6.7397 21.1954 6.64456 21.2595C6.61001 21.2673 6.56727 21.2713 6.51698 21.2713C5.965 21.2713 4.87236 20.8121 4.28533 20.5654L4.19846 20.5289C3.87065 20.3914 3.33551 20.3048 2.818 20.2211C2.40623 20.1544 1.84235 20.0632 1.74888 19.9807C1.67312 19.8957 1.761 19.6195 1.83851 19.3757C1.89431 19.2005 1.95194 19.0194 1.9835 18.8297C2.02828 18.5273 1.97559 18.281 1.93336 18.0832Z" fill="#FAFAFA"/>
</svg>
