<svg width="24" height="24" viewBox="0 0 24 24" fill="none" xmlns="http://www.w3.org/2000/svg">
<path d="M15.4998 14H14.7098L14.4298 13.73C15.4098 12.59 15.9998 11.11 15.9998 9.5C15.9998 5.91 13.0898 3 9.49982 3C5.90982 3 2.99982 5.91 2.99982 9.5C2.99982 13.09 5.90982 16 9.49982 16C11.1098 16 12.5898 15.41 13.7298 14.43L13.9998 14.71V15.5L18.9998 20.49L20.4898 19L15.4998 14ZM9.49982 14C7.00982 14 4.99982 11.99 4.99982 9.5C4.99982 7.01 7.00982 5 9.49982 5C11.9898 5 13.9998 7.01 13.9998 9.5C13.9998 11.99 11.9898 14 9.49982 14Z" fill="#DADADA"/>
</svg>
