<svg width="32" height="32" viewBox="0 0 32 32" fill="none" xmlns="http://www.w3.org/2000/svg">
<path fill-rule="evenodd" clip-rule="evenodd" d="M24.395 15.96C23.9416 16.7867 23.0616 17.3333 22.0616 17.3333H12.1283L10.6616 20H26.6616V22.6667H10.6616C8.63495 22.6667 7.35495 20.4933 8.32829 18.7067L10.1283 15.4533L5.32829 5.33332H2.66162V2.66666H7.02162L8.27495 5.33332H28.0083C29.0216 5.33332 29.6616 6.42666 29.1683 7.30666L24.395 15.96ZM25.7416 7.99999H9.54162L12.7016 14.6667H22.0616L25.7416 7.99999ZM10.6616 24C9.19495 24 8.00829 25.2 8.00829 26.6667C8.00829 28.1333 9.19495 29.3333 10.6616 29.3333C12.1283 29.3333 13.3283 28.1333 13.3283 26.6667C13.3283 25.2 12.1283 24 10.6616 24ZM21.3416 26.6667C21.3416 25.2 22.5283 24 23.995 24C25.4616 24 26.6616 25.2 26.6616 26.6667C26.6616 28.1333 25.4616 29.3333 23.995 29.3333C22.5283 29.3333 21.3416 28.1333 21.3416 26.6667Z" fill="white"/>
</svg>
